<svg xmlns="http://www.w3.org/2000/svg" viewBox="0 0 200 60" style="enable-background:new 0 0 200 60;">
  <defs>
    <linearGradient id="logoGradient" x1="0%" y1="0%" x2="100%" y2="100%">
      <stop offset="0%" stop-color="#85C443"/>
      <stop offset="50%" stop-color="#043025"/>
      <stop offset="100%" stop-color="#FBD801"/>
    </linearGradient>
    <filter id="logoShadow">
      <dropShadow dx="2" dy="2" stdDeviation="3" flood-color="#043025" flood-opacity="0.3"/>
    </filter>
  </defs>
  
  <!-- Background Circle -->
  <circle cx="30" cy="30" r="28" fill="url(#logoGradient)" filter="url(#logoShadow)"/>
  
  <!-- Wheat/Grain Symbol -->
  <g transform="translate(30,30)">
    <!-- Main stem -->
    <line x1="0" y1="15" x2="0" y2="-15" stroke="#F5FBF7" stroke-width="2" stroke-linecap="round"/>
    
    <!-- Wheat grains - left side -->
    <ellipse cx="-4" cy="-12" rx="3" ry="2" fill="#F5FBF7" transform="rotate(-20)"/>
    <ellipse cx="-5" cy="-8" rx="3" ry="2" fill="#F5FBF7" transform="rotate(-25)"/>
    <ellipse cx="-5" cy="-4" rx="3" ry="2" fill="#F5FBF7" transform="rotate(-20)"/>
    <ellipse cx="-4" cy="0" rx="3" ry="2" fill="#F5FBF7" transform="rotate(-15)"/>
    <ellipse cx="-3" cy="4" rx="3" ry="2" fill="#F5FBF7" transform="rotate(-10)"/>
    <ellipse cx="-2" cy="8" rx="3" ry="2" fill="#F5FBF7" transform="rotate(-5)"/>
    
    <!-- Wheat grains - right side -->
    <ellipse cx="4" cy="-12" rx="3" ry="2" fill="#F5FBF7" transform="rotate(20)"/>
    <ellipse cx="5" cy="-8" rx="3" ry="2" fill="#F5FBF7" transform="rotate(25)"/>
    <ellipse cx="5" cy="-4" rx="3" ry="2" fill="#F5FBF7" transform="rotate(20)"/>
    <ellipse cx="4" cy="0" rx="3" ry="2" fill="#F5FBF7" transform="rotate(15)"/>
    <ellipse cx="3" cy="4" rx="3" ry="2" fill="#F5FBF7" transform="rotate(10)"/>
    <ellipse cx="2" cy="8" rx="3" ry="2" fill="#F5FBF7" transform="rotate(5)"/>
    
    <!-- Wheat awns (bristles) -->
    <line x1="-7" y1="-10" x2="-12" y2="-14" stroke="#F5FBF7" stroke-width="1" opacity="0.8"/>
    <line x1="-8" y1="-6" x2="-13" y2="-9" stroke="#F5FBF7" stroke-width="1" opacity="0.8"/>
    <line x1="-8" y1="-2" x2="-13" y2="-4" stroke="#F5FBF7" stroke-width="1" opacity="0.8"/>
    
    <line x1="7" y1="-10" x2="12" y2="-14" stroke="#F5FBF7" stroke-width="1" opacity="0.8"/>
    <line x1="8" y1="-6" x2="13" y2="-9" stroke="#F5FBF7" stroke-width="1" opacity="0.8"/>
    <line x1="8" y1="-2" x2="13" y2="-4" stroke="#F5FBF7" stroke-width="1" opacity="0.8"/>
  </g>
  
  <!-- Company Name -->
  <text x="70" y="25" font-family="General Sans, sans-serif" font-size="16" font-weight="700" fill="#043025">
    AMRUDHYA
  </text>
  <text x="70" y="42" font-family="General Sans, sans-serif" font-size="10" font-weight="400" fill="#85C443" letter-spacing="2px">
    HARVEST
  </text>
  
  <!-- Decorative elements -->
  <circle cx="190" cy="15" r="2" fill="#FBD801" opacity="0.6"/>
  <circle cx="185" cy="20" r="1.5" fill="#85C443" opacity="0.4"/>
  <circle cx="192" cy="25" r="1" fill="#043025" opacity="0.3"/>
</svg>